<svg width="317" height="258" viewBox="0 0 317 258" fill="none" xmlns="http://www.w3.org/2000/svg">
<path d="M160.302 0C191.133 5.205e-05 219.541 10.9748 242.225 29.4316C261.132 9.53809 286.045 -5.60593 295.791 5.24512C308.055 18.9008 299.554 59.3646 284.251 86.9678C291.033 103.962 294.784 122.641 294.784 142.246C294.784 142.301 294.782 142.356 294.782 142.41C307.19 141.951 317 136.443 317 142.441C317 148.52 306.927 153.479 294.285 153.752C293.946 157.62 293.437 161.376 292.764 165.022C304.798 164.371 314.198 159.218 314.198 165.09C314.198 171.344 303.535 176.413 290.383 176.413C290.267 176.413 290.152 176.409 290.037 176.408C273.65 231.632 217.301 258 160.302 258C113.115 258 50.5601 231.873 31.543 177.164C29.9533 177.323 28.3053 177.408 26.6162 177.408C13.4638 177.408 2.80176 172.338 2.80176 166.084C2.80227 159.831 13.4641 166.084 26.6162 166.084C27.2107 166.084 27.8002 166.071 28.3838 166.047C27.5631 162.374 26.927 158.587 26.4951 154.687C25.6152 154.733 24.7207 154.761 23.8145 154.761C10.6621 154.761 0 149.691 0 143.437C2.72743e-05 137.183 10.6621 143.436 23.8145 143.437C24.4923 143.437 25.1636 143.418 25.8271 143.388C25.8235 143.008 25.8193 142.628 25.8193 142.246C25.8193 124.226 28.9888 106.99 34.7676 91.124C17.9797 63.6031 7.91714 19.6042 20.8125 5.24512C30.8614 -5.94373 57.037 10.5072 76.126 31.3037C99.1684 11.7188 128.441 0 160.302 0Z" fill="#D9D9D9"/>
</svg>
