<?xml version="1.0"?>
<svg width="100" height="100" xmlns="http://www.w3.org/2000/svg" xmlns:svg="http://www.w3.org/2000/svg">
 <g class="layer">
  <title>Layer 1</title>
  <rect fill="#b4adea" height="129" id="svg_4" stroke="#000000" stroke-width="0" width="139" x="-20.21" y="-15.6"/>
  <g id="svg_3">
   <title>Layer 1</title>
   <path d="m100,50c0,27.61 -22.39,50 -50,50c-27.61,0 -50,-22.39 -50,-50c0,-27.61 22.39,-50 50,-50c27.61,0 50,22.39 50,50z" fill="#B4ADEA" id="svg_1"/>
   <path d="m39.94,47.87c4.85,-7.57 15.92,-7.57 20.77,0l7.09,11.06c0.16,0.26 0.32,0.52 0.46,0.79c4.4,1.09 7.66,4.96 7.66,9.56c0,5.45 -4.56,9.87 -10.18,9.87c-1.9,0 -3.68,-0.51 -5.2,-1.39c-2.84,2.03 -6.38,3.24 -10.22,3.24c-3.83,0 -7.37,-1.21 -10.21,-3.24c-1.52,0.88 -3.3,1.39 -5.2,1.39c-5.62,0 -10.18,-4.42 -10.18,-9.87c0,-4.6 3.25,-8.47 7.65,-9.56c0.15,-0.27 0.3,-0.53 0.47,-0.79l7.09,-11.06zm-18.46,-11.82c3.65,-0.38 7.8,3.67 9.26,9.05c1.46,5.37 -0.31,10.04 -3.96,10.41c-3.66,0.38 -7.8,-3.67 -9.27,-9.05c-1.46,-5.37 0.32,-10.04 3.97,-10.41zm47.83,9.05c1.47,-5.38 5.61,-9.43 9.27,-9.05c3.65,0.37 5.43,5.04 3.96,10.41c-1.46,5.38 -5.61,9.43 -9.26,9.05c-3.65,-0.37 -5.43,-5.04 -3.97,-10.41zm-29.35,-29.08c3.64,-0.2 6.87,4.55 7.21,10.62c0.35,6.07 -2.32,11.16 -5.96,11.36c-3.64,0.21 -6.87,-4.54 -7.22,-10.61c-0.35,-6.07 2.33,-11.16 5.97,-11.37zm21.21,-0.01c3.64,0.2 6.31,5.29 5.96,11.36c-0.34,6.07 -3.58,10.83 -7.22,10.62c-3.64,-0.21 -6.31,-5.3 -5.96,-11.37c0.34,-6.07 3.57,-10.82 7.22,-10.61z" fill="#1C3144" id="svg_2"/>
  </g>
 </g>
</svg>