<svg width="118" height="122" viewBox="0 0 118 122" fill="none" xmlns="http://www.w3.org/2000/svg">
<g filter="url(#filter0_d_5_30)">
<path d="M42.1979 54.6776C50.0666 42.3994 68.0071 42.3994 75.8757 54.6776L87.3679 72.6102C87.6402 73.0352 87.8937 73.4655 88.1296 73.8983C95.2624 75.6636 100.537 81.9357 100.537 89.4022C100.537 98.2386 93.1494 105.402 84.0368 105.402C80.9547 105.402 78.0705 104.582 75.6022 103.155C70.9948 106.448 65.2575 108.402 59.0368 108.402C52.8158 108.402 47.078 106.448 42.4704 103.155C40.0023 104.581 37.1186 105.402 34.0368 105.402C24.9242 105.402 17.5369 98.2387 17.5368 89.4022C17.5368 81.9362 22.8101 75.6642 29.9421 73.8983C30.178 73.4654 30.4324 73.0363 30.7048 72.6112L42.1979 54.6776ZM12.2624 35.5067C18.1862 34.8966 24.9111 41.4687 27.2829 50.1854C29.6546 58.9018 26.7758 66.4627 20.8523 67.0731C14.9284 67.6832 8.20259 61.1111 5.83078 52.3944C3.45905 43.6779 6.33882 36.117 12.2624 35.5067ZM89.8317 50.1854C92.2036 41.4687 98.9284 34.8966 104.852 35.5067C110.776 36.117 113.655 43.6778 111.283 52.3944C108.911 61.1111 102.186 67.6832 96.2624 67.0731C90.3388 66.4628 87.46 58.9019 89.8317 50.1854ZM42.2253 3.03599C48.1285 2.70013 53.3683 10.407 53.9284 20.2499C54.4884 30.0928 50.1568 38.3446 44.2536 38.6805C38.3504 39.0164 33.1106 31.3096 32.5505 21.4667C31.9905 11.6237 36.3221 3.37205 42.2253 3.03599ZM76.6169 3.0106C82.52 3.34709 86.8513 11.5994 86.2907 21.4422C85.73 31.285 80.4897 38.9911 74.5866 38.6551C68.6834 38.3189 64.3522 30.0674 64.9128 20.2245C65.4734 10.3815 70.7136 2.67435 76.6169 3.0106Z" fill="#F8D1B2" stroke="#9791C4" stroke-width="6"/>
</g>
<defs>
<filter id="filter0_d_5_30" x="6.10352e-05" y="-0.000427246" width="117.114" height="121.403" filterUnits="userSpaceOnUse" color-interpolation-filters="sRGB">
<feFlood flood-opacity="0" result="BackgroundImageFix"/>
<feColorMatrix in="SourceAlpha" type="matrix" values="0 0 0 0 0 0 0 0 0 0 0 0 0 0 0 0 0 0 127 0" result="hardAlpha"/>
<feOffset dy="8"/>
<feGaussianBlur stdDeviation="1"/>
<feComposite in2="hardAlpha" operator="out"/>
<feColorMatrix type="matrix" values="0 0 0 0 0.109804 0 0 0 0 0.192157 0 0 0 0 0.266667 0 0 0 0.2 0"/>
<feBlend mode="normal" in2="BackgroundImageFix" result="effect1_dropShadow_5_30"/>
<feBlend mode="normal" in="SourceGraphic" in2="effect1_dropShadow_5_30" result="shape"/>
</filter>
</defs>
</svg>
